<?xml version="1.0" standalone="no"?><svg xmlns="http://www.w3.org/2000/svg" viewBox="0 0 1440 320"><path fill="#5e548e" fill-opacity="1" d="M0,288L0,160L120,160L120,32L240,32L240,192L360,192L360,128L480,128L480,64L600,64L600,160L720,160L720,128L840,128L840,224L960,224L960,192L1080,192L1080,128L1200,128L1200,192L1320,192L1320,128L1440,128L1440,0L1320,0L1320,0L1200,0L1200,0L1080,0L1080,0L960,0L960,0L840,0L840,0L720,0L720,0L600,0L600,0L480,0L480,0L360,0L360,0L240,0L240,0L120,0L120,0L0,0L0,0Z"></path></svg>